PathFileType  4	(X/Y/Z) C:\Users\HPL 1\Documents/Temp/Sub278498/Files_W_HJCs/
DataRate	CameraRate	NumFrames	NumMarkers	Units	OrigDataRate	OrigDataStartFrame	OrigNumFrames
50.0	50.0	4	42	mm	50.0	500	571
Frame#	Time  	r_knee			r_shank(antsup)			r_ankle			r_calc			r_5meta			r_toe			L_knee			L_shank(ant_sup)			L_ankle			L_calc			L_5meta			L_toe			r_mknee			r_mankle			L_mknee			L_mankle			r_sh2			r_sh3			r_sh4			L_sh2			L_sh3			r_thigh1			r_thigh2			r_thigh3			r_thigh4			r_thigh5			L_thigh1			L_thigh2			L_thigh3			L_thigh4			r.ASIS			r.PSIS			L.ASIS			L.PSIS			C7			R_Shoulder			L_Shoulder			Sternum			R_HJC			L_HJC			R_HJC_reg			L_HJC_reg			
		X1	Y1	Z1	X2	Y2	Z2	X3	Y3	Z3	X4	Y4	Z4	X5	Y5	Z5	X6	Y6	Z6	X7	Y7	Z7	X8	Y8	Z8	X9	Y9	Z9	X10	Y10	Z10	X11	Y11	Z11	X12	Y12	Z12	X13	Y13	Z13	X14	Y14	Z14	X15	Y15	Z15	X16	Y16	Z16	X17	Y17	Z17	X18	Y18	Z18	X19	Y19	Z19	X20	Y20	Z20	X21	Y21	Z21	X22	Y22	Z22	X23	Y23	Z23	X24	Y24	Z24	X25	Y25	Z25	X26	Y26	Z26	X27	Y27	Z27	X28	Y28	Z28	X29	Y29	Z29	X30	Y30	Z30	X31	Y31	Z31	X32	Y32	Z32	X33	Y33	Z33	X34	Y34	Z34	X35	Y35	Z35	X36	Y36	Z36	X37	Y37	Z37	X38	Y38	Z38	X39	Y39	Z39	X40	Y40	Z40	X41	Y41	Z41	X42	Y42	Z42	

500	9.98000	538.76208	741.85596	-451.49106	505.07458	666.66119	-413.15430	239.94514	408.08240	-295.10126	139.01601	384.66187	-336.72922	307.12933	312.79581	-227.54523	359.66263	306.36041	-290.32568	749.56311	564.50610	-869.79901	780.42987	447.65195	-854.54791	697.34521	109.06480	-811.51031	621.17102	72.51165	-755.75763	814.64594	41.82960	-848.67474	861.61279	68.87494	-791.97394	531.06836	670.91400	-560.14124	255.01772	372.24911	-383.43619	763.70331	568.80090	-745.58337	726.31134	122.95271	-721.83893	432.06732	583.17517	-368.72110	444.10693	710.40405	-423.55905	367.59949	635.84241	-378.01233	693.63129	463.23819	-880.02216	682.41766	342.74554	-864.48517	733.34399	990.12317	-545.14026	688.05005	892.37958	-504.71442	631.29529	886.60425	-492.70392	627.60150	1027.74341	-561.22339	585.32050	923.08313	-527.20813	821.04437	832.72180	-915.60724	829.91382	695.92236	-896.18555	706.39545	823.23395	-935.55798	718.70532	692.22034	-903.53632	834.86969	1133.72644	-653.66418	664.49982	1181.54041	-773.92590	848.43109	1066.61133	-902.50861	671.08685	1155.54541	-851.46820	825.39166	1625.19971	-859.98053	867.02405	1606.05945	-700.97595	876.00293	1555.74976	-1038.62646	942.95624	1517.49011	-854.03204	745.83032	1063.38758	-652.07297	761.35081	999.87365	-879.21457	746.70650	1073.82108	-679.47469	760.38188	1019.85267	-840.46083
501	10.00000	532.22058	738.03479	-460.75937	496.84836	662.59937	-424.97549	226.29912	405.69772	-314.47040	124.61069	386.13046	-357.20477	290.84805	306.73047	-249.48019	343.80301	301.07373	-311.98004	748.99274	564.56134	-870.33112	779.98273	447.73755	-854.95551	697.26819	109.02819	-811.78973	621.13617	72.44035	-755.88995	814.64258	41.71668	-848.69037	861.52502	68.82495	-792.10272	524.26184	670.05988	-571.05664	241.35043	372.24542	-403.72891	763.22754	568.69238	-746.42657	726.12640	122.96151	-722.21240	422.20605	579.19763	-382.77594	436.94852	707.63251	-434.09052	358.89371	633.35284	-390.67004	693.30450	463.21445	-880.64722	682.21936	342.73856	-865.18396	731.09637	985.88043	-546.85626	684.27020	887.86823	-509.13721	627.33167	882.55884	-497.67560	625.94147	1025.26318	-562.80469	581.89764	919.91827	-531.37573	820.13971	832.70630	-916.54376	829.01953	695.86627	-896.96582	705.37354	823.24811	-936.14362	717.63538	692.19739	-904.20251	833.82080	1130.93018	-653.35339	664.66339	1181.24756	-772.82880	847.77490	1066.36072	-902.76428	670.96826	1155.70056	-850.70355	826.66876	1624.74695	-858.57574	869.16089	1604.91931	-699.91302	876.11127	1555.64209	-1037.59814	943.75873	1516.52063	-853.46088	744.74839	1061.10599	-652.38211	760.14753	999.95099	-880.17839	745.68899	1072.59188	-679.63372	758.75026	1019.66830	-840.96031
502	10.02000	525.99799	733.96875	-470.15445	489.29535	658.19110	-436.13696	213.63350	403.42331	-333.46280	111.96082	387.02103	-377.00815	276.02213	301.37903	-271.23071	329.01202	296.56757	-333.50351	748.47321	564.55865	-870.76794	779.54120	447.70605	-855.26874	697.18115	109.00292	-811.99237	621.10455	72.44563	-755.97156	814.62799	41.75462	-848.59503	861.52466	68.83919	-791.81915	518.05682	668.79877	-581.89160	228.23264	372.17096	-423.75134	762.29041	569.00903	-746.82391	725.91205	122.95412	-722.49811	412.95642	575.13293	-396.67099	430.15747	704.44226	-444.69025	350.75412	630.50153	-403.30652	692.89355	463.14536	-881.08911	681.97675	342.61252	-865.64294	729.00092	981.22418	-548.67212	680.75739	882.98834	-513.53107	623.53986	878.06573	-502.92670	624.43274	1022.17303	-564.43256	579.04535	917.12909	-535.76062	819.24927	832.44299	-917.50244	827.86426	695.66418	-897.75745	704.51666	823.16443	-936.77472	716.15735	692.08649	-904.65887	834.09558	1128.47302	-652.90900	664.59772	1180.93994	-771.86346	846.99823	1066.08472	-903.06250	670.72217	1155.83801	-849.95160	827.66553	1624.06030	-857.33850	871.22339	1603.98840	-698.89404	876.11371	1555.37988	-1036.67151	944.48566	1515.46130	-852.97620	744.43426	1059.20665	-652.52639	759.05117	999.93568	-880.87155	745.23994	1071.18446	-679.65526	757.92575	1019.18987	-841.40222
503	10.04000	520.48383	729.28040	-480.24149	482.56927	653.34497	-447.94092	202.53862	400.87903	-352.13065	100.15035	387.77979	-396.06915	262.89630	296.07059	-292.92856	315.57236	291.94159	-355.46564	747.65179	564.48267	-871.38196	778.85651	447.58142	-855.77759	697.12201	108.94440	-812.36169	620.98029	72.34559	-756.07928	814.68073	41.83462	-848.52844	861.45990	68.88910	-791.70703	511.52042	667.57227	-593.10388	215.70404	372.20877	-443.62140	761.31256	568.95093	-747.40253	725.77014	123.01039	-722.73560	404.53421	570.58459	-410.88275	424.17737	701.02527	-455.07343	343.44775	627.43829	-415.69366	692.33844	462.91672	-881.71503	681.83032	342.02328	-865.88458	727.18182	976.34857	-550.85529	677.12665	877.72968	-518.14398	620.19330	873.17041	-508.40894	623.02563	1018.94879	-565.67188	576.21326	913.86371	-540.24518	818.47162	832.10333	-918.29712	826.86493	695.38580	-898.35486	703.68054	823.10309	-937.03308	715.45313	691.87952	-905.02386	833.71924	1125.74280	-652.59204	664.36908	1180.62219	-770.65643	846.73132	1065.90930	-903.19720	670.29669	1156.01868	-849.10822	828.47510	1623.34839	-856.22284	872.90393	1602.88477	-698.17950	876.06067	1554.95386	-1035.87573	945.02283	1514.42126	-852.41052	743.73285	1056.99817	-652.75509	758.09496	1000.07323	-881.71250	744.69747	1069.75985	-679.81487	756.94097	1018.94122	-841.85730
